<?xml version="1.0" encoding="utf-8"?>
<!-- Generator: Adobe Illustrator 19.2.0, SVG Export Plug-In . SVG Version: 6.00 Build 0)  -->
<svg version="1.1" id="Capa_1" xmlns="http://www.w3.org/2000/svg" xmlns:xlink="http://www.w3.org/1999/xlink" x="0px" y="0px"
	 viewBox="0 0 30 30" style="enable-background:new 0 0 30 30;" xml:space="preserve">
<style type="text/css">
	.st0{fill:#C12F32;}
</style>
<path class="st0" d="M14.8,0.3c-8,0-14.5,6.5-14.5,14.5c0,8,6.5,14.5,14.5,14.5c8,0,14.5-6.5,14.5-14.5C29.3,6.8,22.8,0.3,14.8,0.3z
	 M21.9,19.9c1.7,1.7-0.9,4.2-2.5,2.5l-4.2-4.2l-4.2,4.2c-1.7,1.7-4.2-0.9-2.6-2.5l4.2-4.2l-4.2-4.2c-1.7-1.7,0.9-4.2,2.6-2.6
	l4.2,4.2l4.2-4.2c1.7-1.7,4.2,0.9,2.5,2.6l-4.2,4.2L21.9,19.9z"/>
</svg>
