<?xml version="1.0" encoding="utf-8"?>
<!-- Generator: Adobe Illustrator 19.2.0, SVG Export Plug-In . SVG Version: 6.00 Build 0)  -->
<svg version="1.1" id="Capa_1" xmlns="http://www.w3.org/2000/svg" xmlns:xlink="http://www.w3.org/1999/xlink" x="0px" y="0px"
	 viewBox="0 0 30 30" style="enable-background:new 0 0 30 30;" xml:space="preserve">
<style type="text/css">
	.st0{fill:#886CFE;}
</style>
<g>
	<path class="st0" d="M26.2,3.8H22V2.5c0-0.5-0.5-1-1-1c-0.5,0-1,0.5-1,1v1.2h-9.9V2.5c0-0.5-0.5-1-1-1S8,2,8,2.5v1.2H3.8
		C2,3.8,0.5,5.2,0.5,7v18.2c0,1.8,1.5,3.3,3.3,3.3h22.5c1.8,0,3.3-1.5,3.3-3.3V7C29.5,5.2,28,3.8,26.2,3.8z M27.5,25.2
		c0,0.7-0.5,1.2-1.3,1.2H3.8c-0.7,0-1.3-0.5-1.3-1.2V12.3h24.9L27.5,25.2L27.5,25.2z M27.5,10.2h-25V7c0-0.7,0.5-1.2,1.3-1.2H8V7
		c0,0.5,0.5,1,1,1c0.5,0,1-0.5,1-1V5.8h9.9V7c0,0.5,0.5,1,1,1s1-0.5,1-1V5.8h4.2c0.7,0,1.3,0.5,1.3,1.2L27.5,10.2L27.5,10.2z"/>
	<path class="st0" d="M7.3,18.4h2.4c0.3,0,0.5-0.2,0.5-0.5v-1.7c0-0.3-0.2-0.5-0.5-0.5H7.3c-0.3,0-0.5,0.2-0.5,0.5v1.7
		C6.7,18.1,7,18.4,7.3,18.4z"/>
	<path class="st0" d="M13.8,18.4h2.4c0.3,0,0.5-0.2,0.5-0.5v-1.7c0-0.3-0.2-0.5-0.5-0.5h-2.4c-0.3,0-0.5,0.2-0.5,0.5v1.7
		C13.3,18.1,13.5,18.4,13.8,18.4z"/>
	<path class="st0" d="M20.4,18.4h2.4c0.3,0,0.5-0.2,0.5-0.5v-1.7c0-0.3-0.2-0.5-0.5-0.5h-2.4c-0.3,0-0.5,0.2-0.5,0.5v1.7
		C19.9,18.1,20.1,18.4,20.4,18.4z"/>
	<path class="st0" d="M7.3,23.1h2.4c0.3,0,0.5-0.2,0.5-0.5v-1.7c0-0.3-0.2-0.5-0.5-0.5H7.3c-0.3,0-0.5,0.2-0.5,0.5v1.7
		C6.7,22.9,7,23.1,7.3,23.1z"/>
	<path class="st0" d="M13.8,23.1h2.4c0.3,0,0.5-0.2,0.5-0.5v-1.7c0-0.3-0.2-0.5-0.5-0.5h-2.4c-0.3,0-0.5,0.2-0.5,0.5v1.7
		C13.3,22.9,13.5,23.1,13.8,23.1z"/>
	<path class="st0" d="M20.4,23.1h2.4c0.3,0,0.5-0.2,0.5-0.5v-1.7c0-0.3-0.2-0.5-0.5-0.5h-2.4c-0.3,0-0.5,0.2-0.5,0.5v1.7
		C19.9,22.9,20.1,23.1,20.4,23.1z"/>
</g>
</svg>
