<?xml version="1.0" encoding="utf-8"?>
<!-- Generator: Adobe Illustrator 19.2.0, SVG Export Plug-In . SVG Version: 6.00 Build 0)  -->
<svg version="1.1" id="Capa_1" xmlns="http://www.w3.org/2000/svg" xmlns:xlink="http://www.w3.org/1999/xlink" x="0px" y="0px"
	 viewBox="0 0 30 30" style="enable-background:new 0 0 30 30;" xml:space="preserve">
<style type="text/css">
	.st0{fill:#886CFE;}
</style>
<g>
	<path class="st0" d="M25.7,4.5c0-1.9-1.5-3.3-3.3-3.3S19,2.6,19,4.5c0,0.2,0,0.3,0,0.5c1-0.5,2.3-0.3,3.2,0.6l-0.7,0.7
		c-0.6-0.6-1.5-0.7-2.2-0.4c0.5,1.1,1.7,1.9,3,1.9C24.2,7.8,25.7,6.3,25.7,4.5z"/>
	<path class="st0" d="M8.9,4.4l0.8-0.5l-1-1.7L8,2.7l0.2,0.4L7.3,3.6c-0.4-0.5-1-0.9-1.7-1v-1h0.5v-1H4.2v1h0.5v1
		C4,2.7,3.4,3.1,3,3.6L2,3.1l0.2-0.4L1.5,2.2l-1,1.7l0.8,0.5L1.5,4l0.9,0.5c-0.1,0.3-0.2,0.6-0.2,1s0.1,0.7,0.2,1L1.6,6.9L1.3,6.5
		L0.5,7l1,1.7l0.8-0.5L2,7.8l0.9-0.5c0.4,0.5,1,0.9,1.7,1v1H4.2v1h1.9v-1H5.6v-1c0.7-0.1,1.3-0.5,1.7-1l0.9,0.5L8,8.2l0.8,0.5l1-1.7
		L8.9,6.5L8.7,6.9L7.8,6.4C7.9,6.1,8,5.8,8,5.4s-0.1-0.7-0.2-1l0.9-0.5L8.9,4.4z M5.1,7.4C4,7.4,3.2,6.5,3.2,5.5s0.9-1.9,1.9-1.9
		S7,4.4,7,5.4S6.2,7.4,5.1,7.4z"/>
	<polygon class="st0" points="14.3,7 15,7.7 17.3,5.4 15,3.2 14.3,3.9 15.4,5 11.8,5 11.8,5.9 15.4,5.9 	"/>
	<rect x="9.9" y="5" class="st0" width="1" height="1"/>
	<path class="st0" d="M19.5,15h-1v2.9l-1.9,11.5h3.8l1.9-11.5v11.5h3.8V17.9v-6.7h1v6.7h2.4v-7.2c0-1.6-1.3-2.9-2.9-2.9h-4.3h-3.6
		c-1.5,0-2.7,1.1-2.9,2.6L15.6,13l-3.8,3l1.9,2.4l4.8-3.3 M22.8,15.5h-1v-1h1V15.5z M22.8,13.6h-1V9.7h1V13.6z"/>
</g>
</svg>
