<?xml version="1.0" encoding="utf-8"?>
<!-- Generator: Adobe Illustrator 19.2.0, SVG Export Plug-In . SVG Version: 6.00 Build 0)  -->
<svg version="1.1" id="Capa_1" xmlns="http://www.w3.org/2000/svg" xmlns:xlink="http://www.w3.org/1999/xlink" x="0px" y="0px"
	 viewBox="0 0 30 30" style="enable-background:new 0 0 30 30;" xml:space="preserve">
<style type="text/css">
	.st0{fill:#FFBD02;}
</style>
<g>
	<path class="st0" d="M28.5,14.5h-2c-0.1-2.8-1.2-5.4-3-7.4l1.4-1.4l1.4,1.4L27,6.5l-3.4-3.4l-0.7,0.7l1.4,1.4l-1.4,1.4
		c-2-1.8-4.5-3-7.4-3.1V1.5h1.9v-1h-4.8v1h1.9v1.9c-2.8,0.1-5.4,1.3-7.4,3.1L5.8,5.1l1.4-1.4L6.5,3.1L3,6.5l0.7,0.7l1.4-1.4l1.4,1.4
		c-1.8,2-2.9,4.5-3.1,7.4H1.5v-1.9h-1v4.8h1v-1.9h1.9c0.1,2.8,1.3,5.4,3.1,7.4l-1.4,1.4l-1.4-1.4L3,23.5L6.5,27l0.7-0.7l-1.4-1.4
		l1.4-1.4c2,1.8,4.5,2.9,7.4,3v1.9h-1.9v1h4.8v-1h-1.9v-1.9c2.8-0.1,5.4-1.3,7.4-3.1l1.4,1.4l-1.4,1.4l0.7,0.7l3.4-3.4l-0.7-0.7
		l-1.4,1.4l-1.4-1.4c1.8-2,2.9-4.5,3.1-7.3h2v1.9h1v-4.8h-1L28.5,14.5L28.5,14.5z M15,25.6C9.1,25.6,4.4,20.9,4.4,15S9.1,4.4,15,4.4
		S25.6,9.1,25.6,15S20.9,25.6,15,25.6z"/>
	<path class="st0" d="M15,12.6c-1.3,0-2.4,1.1-2.4,2.4s1.1,2.4,2.4,2.4s2.4-1.1,2.4-2.4S16.3,12.6,15,12.6z M15,16.4
		c-0.8,0-1.4-0.7-1.4-1.4s0.7-1.4,1.4-1.4s1.4,0.7,1.4,1.4S15.8,16.4,15,16.4z"/>
	<path class="st0" d="M15,5.3c-1.4,0-2.4,0.7-2.4,1.7c0,0.8,0.8,1.5,1.9,1.7v1h1v-1c1.1-0.2,1.9-0.8,1.9-1.7
		C17.4,6.1,16.3,5.3,15,5.3z M15,7.8c-0.8,0-1.4-0.4-1.4-0.7s0.6-0.7,1.4-0.7s1.4,0.4,1.4,0.7S15.8,7.8,15,7.8z"/>
	<path class="st0" d="M15.5,21.3v-1h-1v1c-1.1,0.2-1.9,0.8-1.9,1.7c0,0.9,1.1,1.7,2.4,1.7s2.4-0.7,2.4-1.7
		C17.4,22.1,16.6,21.5,15.5,21.3z M15,23.7c-0.8,0-1.4-0.4-1.4-0.7s0.6-0.7,1.4-0.7s1.4,0.4,1.4,0.7S15.8,23.7,15,23.7z"/>
	<path class="st0" d="M8.7,15.5h1v-1h-1c-0.2-1.1-0.8-1.9-1.7-1.9c-0.9,0-1.7,1.1-1.7,2.4s0.7,2.4,1.7,2.4
		C7.9,17.4,8.5,16.6,8.7,15.5z M7,16.4c-0.3,0-0.7-0.6-0.7-1.4s0.4-1.4,0.7-1.4s0.7,0.6,0.7,1.4S7.4,16.4,7,16.4z"/>
	<path class="st0" d="M21.3,14.5h-1v1h1c0.2,1.1,0.8,1.9,1.7,1.9c0.9,0,1.7-1.1,1.7-2.4s-0.7-2.4-1.7-2.4
		C22.1,12.6,21.5,13.4,21.3,14.5z M23,13.6c0.3,0,0.7,0.6,0.7,1.4s-0.4,1.4-0.7,1.4c-0.3,0-0.7-0.6-0.7-1.4S22.6,13.6,23,13.6z"/>
	<path class="st0" d="M11.4,9.1c0.1-0.6,0-1.1-0.3-1.5l0,0l0,0c-0.3-0.3-0.9-0.5-1.5-0.3c-0.5,0.1-1,0.4-1.4,0.8
		C7.7,8.6,7.4,9.1,7.3,9.6c-0.1,0.6,0,1.1,0.3,1.5c0.3,0.3,0.6,0.4,1,0.4c0.1,0,0.3,0,0.4-0.1c0.4-0.1,0.7-0.3,1.1-0.5l0.7,0.7
		l0.7-0.7l-0.7-0.7C11.1,9.9,11.3,9.5,11.4,9.1z M8.9,10.5c-0.2,0.1-0.4,0-0.6-0.1c-0.1-0.1-0.1-0.3-0.1-0.6c0.1-0.3,0.3-0.7,0.6-1
		s0.7-0.5,1-0.6c0.1,0,0.2,0,0.2,0c0.1,0,0.2,0,0.3,0.1l0,0c0.1,0.1,0.1,0.3,0.1,0.6c-0.1,0.3-0.3,0.7-0.6,1S9.2,10.4,8.9,10.5z"/>
	<path class="st0" d="M20.9,18.6c-0.4,0.1-0.7,0.3-1.1,0.5l-0.7-0.7l-0.7,0.7l0.7,0.7c-0.3,0.3-0.4,0.7-0.5,1.1
		c-0.1,0.6,0,1.1,0.3,1.5l0,0l0,0c0.3,0.3,0.6,0.4,1,0.4c0.1,0,0.3,0,0.4-0.1c0.5-0.1,1-0.4,1.4-0.8c0.4-0.4,0.7-0.9,0.8-1.4
		c0.1-0.6,0-1.1-0.3-1.5C22,18.6,21.5,18.5,20.9,18.6z M21.7,20.2c-0.1,0.3-0.3,0.7-0.6,1c-0.3,0.3-0.7,0.5-1,0.6
		c-0.2,0.1-0.4,0-0.6-0.1l0,0c-0.1-0.1-0.1-0.3-0.1-0.6c0.1-0.3,0.3-0.7,0.6-1c0.3-0.3,0.7-0.5,1-0.6c0.1,0,0.2,0,0.2,0
		c0.1,0,0.2,0,0.3,0.1C21.8,19.7,21.8,19.9,21.7,20.2z"/>
	<path class="st0" d="M10.9,18.4l-0.7,0.7c-0.3-0.3-0.7-0.4-1.1-0.5c-0.6-0.1-1.1,0-1.5,0.3l0,0l0,0c-0.3,0.3-0.5,0.9-0.3,1.5
		c0.1,0.5,0.4,1,0.8,1.4c0.4,0.4,0.9,0.7,1.4,0.8c0.2,0,0.3,0.1,0.4,0.1c0.4,0,0.8-0.1,1-0.4c0.3-0.3,0.5-0.9,0.3-1.5
		c-0.1-0.4-0.3-0.7-0.5-1.1l0.7-0.7L10.9,18.4z M10.4,21.7c-0.1,0.1-0.3,0.1-0.6,0.1c-0.3-0.1-0.7-0.3-1-0.6c-0.3-0.3-0.5-0.7-0.6-1
		c-0.1-0.2,0-0.4,0.1-0.6l0,0c0.1-0.1,0.2-0.1,0.3-0.1c0.1,0,0.2,0,0.2,0c0.3,0.1,0.7,0.3,1,0.6c0.3,0.3,0.5,0.7,0.6,1
		C10.5,21.4,10.5,21.6,10.4,21.7z"/>
	<path class="st0" d="M20.4,7.3c-0.6-0.1-1.1,0-1.5,0.3c-0.3,0.3-0.5,0.9-0.3,1.5c0.1,0.4,0.3,0.7,0.5,1.1l-0.7,0.7l0.7,0.7l0.7-0.7
		c0.3,0.3,0.7,0.4,1.1,0.5c0.2,0,0.3,0.1,0.4,0.1c0.4,0,0.8-0.1,1-0.4l0,0l0,0c0.3-0.3,0.5-0.9,0.3-1.5c-0.1-0.5-0.4-1-0.8-1.4
		C21.4,7.7,20.9,7.4,20.4,7.3z M21.7,10.4L21.7,10.4c-0.1,0.1-0.3,0.1-0.6,0.1c-0.3-0.1-0.7-0.3-1-0.6c-0.3-0.3-0.5-0.7-0.6-1
		c-0.1-0.2,0-0.4,0.1-0.6c0.1-0.1,0.2-0.1,0.3-0.1c0.1,0,0.2,0,0.2,0c0.3,0.1,0.7,0.3,1,0.6c0.3,0.3,0.5,0.7,0.6,1
		C21.8,10.1,21.8,10.3,21.7,10.4z"/>
</g>
</svg>
