<?xml version="1.0" encoding="utf-8"?>
<!-- Generator: Adobe Illustrator 19.2.0, SVG Export Plug-In . SVG Version: 6.00 Build 0)  -->
<svg version="1.1" id="Capa_1" xmlns="http://www.w3.org/2000/svg" xmlns:xlink="http://www.w3.org/1999/xlink" x="0px" y="0px"
	 viewBox="0 0 30 30" style="enable-background:new 0 0 30 30;" xml:space="preserve">
<style type="text/css">
	.st0{fill:#34C736;}
</style>
<path class="st0" d="M15,29.5C7,29.5,0.5,23,0.5,15S7,0.5,15,0.5C23,0.5,29.5,7,29.5,15S23,29.5,15,29.5L15,29.5z M22.7,9.4
	c-0.8-0.8-2.1-0.8-2.9,0L13,16.2l-2.7-2.7c-0.8-0.8-2.1-0.8-2.9,0c-0.8,0.8-0.8,2.1,0,2.9l4.2,4.2c0.8,0.8,2.1,0.8,2.9,0l8.3-8.3
	C23.5,11.5,23.5,10.2,22.7,9.4L22.7,9.4z"/>
</svg>
