<?xml version="1.0" encoding="utf-8"?>
<!-- Generator: Adobe Illustrator 19.2.0, SVG Export Plug-In . SVG Version: 6.00 Build 0)  -->
<svg version="1.1" id="Capa_1" xmlns="http://www.w3.org/2000/svg" xmlns:xlink="http://www.w3.org/1999/xlink" x="0px" y="0px"
	 viewBox="0 0 50 50" style="enable-background:new 0 0 50 50;" xml:space="preserve">
<style type="text/css">
	.st0{fill:#0099C6;}
</style>
<g transform="translate(0,-952.36218)">
	<path class="st0" d="M19.3,952.9c-1.6,0-3,1.3-3,3c0,1.6,1.2,2.9,2.8,3l0.1,10.5c-3.3,8.7-7.8,16-10.4,21.5c-1.3,2.8-2.3,5-2.2,7.1
		c0.1,1,0.5,2,1.3,2.7c0.8,0.7,1.8,1.1,3.1,1.3c0.1,0,0.1,0,0.2,0h27.8c0.1,0,0.1,0,0.2,0c1.3-0.2,2.4-0.6,3.1-1.3
		c0.8-0.7,1.2-1.7,1.3-2.7c0.1-2-0.8-4.3-2.2-7.1c-2.7-5.5-7.2-12.8-10.4-21.5l0.1-10.5c1.5-0.1,2.8-1.4,2.8-3c0-1.6-1.3-3-3-3H19.3
		L19.3,952.9z M19.3,955.1h11.4c0.4,0,0.7,0.3,0.7,0.7c0,0.4-0.3,0.7-0.7,0.7h-0.9c-0.6,0-1.1,0.5-1.1,1.1l-0.1,11.8
		c0,0.1,0,0.3,0.1,0.4c3.3,9,8,16.6,10.6,21.9c1.3,2.7,2,4.8,1.9,6c0,0.6-0.2,0.9-0.5,1.2c-0.3,0.3-0.9,0.5-1.9,0.7H11.2
		c-1-0.1-1.6-0.4-1.9-0.7c-0.3-0.3-0.5-0.6-0.5-1.2c-0.1-1.2,0.6-3.3,1.9-6c2.6-5.3,7.2-12.9,10.6-21.9c0-0.1,0.1-0.3,0.1-0.4
		l-0.1-11.8c0-0.6-0.5-1.1-1.1-1.1h-0.9c-0.4,0-0.7-0.3-0.7-0.7C18.6,955.4,18.9,955.1,19.3,955.1L19.3,955.1z"/>
	<path class="st0" d="M20.8,978.7c-0.5,0-0.9,0.3-1,0.7c-1.8,4.5-4.3,8.5-5.6,11.6c-0.7,1.5-1.1,2.8-0.7,4.1
		c0.2,0.7,0.7,1.3,1.4,1.6c0.7,0.3,1.4,0.3,2.2,0.3h15.7c0,0,0,0,0,0c0.9,0,1.7-0.1,2.3-0.5c0.7-0.3,1.2-0.9,1.4-1.6
		c0.4-1.3-0.1-2.6-0.8-4.1c-1.3-3-3.9-6.9-5.7-11.4c-0.2-0.4-0.6-0.7-1-0.7H20.8L20.8,978.7z"/>
	<path class="st0" d="M24,957.4c-0.6,0-1.1,0.5-1.1,1.1v9.3c0,0.6,0.5,1.1,1.1,1.1s1.1-0.5,1.1-1.1c0,0,0,0,0,0v-9.3
		C25.1,958,24.6,957.4,24,957.4C24,957.4,24,957.4,24,957.4z"/>
</g>
</svg>
