<?xml version="1.0" encoding="utf-8"?>
<!-- Generator: Adobe Illustrator 19.2.0, SVG Export Plug-In . SVG Version: 6.00 Build 0)  -->
<svg version="1.1" id="Capa_1" xmlns="http://www.w3.org/2000/svg" xmlns:xlink="http://www.w3.org/1999/xlink" x="0px" y="0px"
	 viewBox="0 0 30 30" style="enable-background:new 0 0 30 30;" xml:space="preserve">
<style type="text/css">
	.st0{fill:#1C7FDD;}
</style>
<g>
	<path class="st0" d="M28.9,18.7c-0.1-0.6-0.6-1.1-1.1-1.3c-2.2-0.6-3.3-1-3.8-1.1c-0.1-0.2-0.1-0.5-0.1-0.7
		c0.2-0.1,0.4-0.2,0.7-0.2c0.6-0.2,1.1-0.6,1.6-1c0.4-0.4,0.7-0.8,1-1.2c0.2-0.3,0.2-0.8,0-1.1c-0.1-0.2-0.2-0.3-0.3-0.5
		c-0.3-0.4-0.5-0.9-0.7-1.4c-0.1-0.3-0.2-0.6-0.3-1c-0.2-0.9-0.6-1.7-1.1-2.4C24.1,6,23,5.4,21.9,5.3c-0.3,0-0.6,0-0.9,0
		c-1.2,0.1-2.3,0.7-3,1.6c-0.5,0.7-0.8,1.5-1,2.3l-0.1,0.3c-0.3,0.7-0.6,1.4-1,2.1l-0.2,0.3c-0.2,0.3-0.2,0.8,0,1.1
		c0.3,0.5,0.6,0.9,1,1.2c0.5,0.4,1,0.7,1.6,1c0.2,0.1,0.4,0.2,0.7,0.2c0,0.2,0,0.5-0.1,0.7c-0.4,0.1-1.6,0.5-3.8,1.1
		c-0.3,0.1-0.5,0.4-0.4,0.7c0.1,0.3,0.4,0.5,0.7,0.4c3.5-1,4-1.2,4.2-1.3l0.2-0.2l0-0.1c0.3-0.7,0.3-1.4,0.1-2.1l-0.1-0.3l-0.3-0.1
		c-0.3-0.1-0.6-0.2-0.9-0.3c-0.5-0.2-0.9-0.5-1.3-0.8c-0.3-0.3-0.5-0.6-0.8-0.9l0.2-0.3c0.5-0.7,0.8-1.5,1.1-2.4l0.1-0.4
		c0.2-0.7,0.4-1.3,0.8-1.9c0.6-0.7,1.3-1.1,2.2-1.1c0.1,0,0.5,0,0.6,0c0.8,0.1,1.6,0.4,2.1,1.1c0.4,0.6,0.7,1.3,0.9,2
		c0.1,0.4,0.2,0.7,0.4,1.1c0.2,0.5,0.5,1,0.8,1.5c0.1,0.2,0.2,0.3,0.3,0.4c-0.2,0.3-0.5,0.6-0.8,0.9c-0.4,0.3-0.8,0.6-1.3,0.8
		c-0.3,0.1-0.6,0.2-0.9,0.3L23,14.6l-0.1,0.3c-0.2,0.7-0.2,1.5,0.1,2.1l0,0.1l0.2,0.2l0.1,0c0.2,0.1,0.8,0.3,4.2,1.3
		c0.2,0,0.3,0.2,0.3,0.3c0.2,1.3,0.5,2.9,0.6,3.6c0,0.3,0.3,0.5,0.6,0.5c0,0,0,0,0.1,0c0.3,0,0.6-0.3,0.5-0.7
		C29.4,21.5,29,19.4,28.9,18.7z"/>
	<path class="st0" d="M16.2,20.2c-2.5-0.7-3.8-1.1-4.2-1.2c-0.1-0.2-0.1-0.4-0.1-0.6c0.1-0.4,0.3-0.8,0.5-1.1c0.3-0.5,0.6-1,0.7-1.5
		c0.5-0.4,0.8-1,0.9-1.6c0,0,0,0,0-0.1l0,0c0,0,0.1-0.7,0.1-0.9c0-0.5-0.2-1-0.6-1.3c0.1-0.5,0.1-1.3,0.1-1.6
		c-0.1-2.4-2.3-3.5-4.4-3.5c-2,0-4.3,1.1-4.4,3.5c0,0.3,0.1,1.1,0.1,1.6c-0.4,0.3-0.6,0.8-0.6,1.3c0,0.2,0.1,0.9,0.1,0.9l0,0
		c0,0,0,0,0,0.1c0.1,0.6,0.4,1.2,0.9,1.6c0.2,0.5,0.4,1.1,0.7,1.5c0.3,0.3,0.5,0.7,0.5,1.1c0,0.2,0,0.4-0.1,0.6
		c-0.4,0.1-1.7,0.5-4.2,1.2c-0.7,0.2-1.3,0.8-1.4,1.5c-0.1,0.5-0.4,1.8-0.4,2.3c0,0.3,0.2,0.6,0.5,0.7c0.3,0,0.6-0.2,0.7-0.5
		c0-0.4,0.2-1.4,0.4-2.2c0.1-0.3,0.3-0.5,0.6-0.6c4.4-1.2,4.6-1.3,4.7-1.4l0,0c0,0,0,0,0.1,0c0.4-0.4,0.4-1.6,0.4-1.6
		c-0.1-0.6-0.3-1.2-0.7-1.7c-0.3-0.4-0.5-0.9-0.6-1.3c0-0.2-0.2-0.3-0.3-0.4c-0.3-0.2-0.5-0.5-0.5-0.9c0,0,0,0,0-0.1
		c0-0.1-0.1-0.7-0.1-0.8c0,0,0,0,0-0.1c0-0.1,0.1-0.3,0.1-0.3c0,0,0,0,0,0c0.3-0.1,0.5-0.3,0.4-0.6c-0.1-0.5-0.2-1.5-0.2-1.8
		C6.2,8.7,7.8,8,9.3,7.9c1.5,0,3.1,0.7,3.2,2.3c0,0.3-0.1,1.4-0.2,1.8c0,0.3,0.2,0.6,0.4,0.6c0,0,0,0,0,0c0.1,0,0.2,0.2,0.1,0.3
		c0,0,0,0.1,0,0.1c0,0.1-0.1,0.6-0.1,0.8c0,0,0,0,0,0.1c0,0.4-0.2,0.7-0.5,0.9c-0.2,0.1-0.3,0.2-0.3,0.4c-0.1,0.5-0.3,0.9-0.6,1.3
		c-0.4,0.5-0.7,1.1-0.7,1.7c0,0,0,1.1,0.4,1.6c0,0,0,0,0,0c0,0,0,0,0,0c0.1,0.1,0.3,0.2,4.7,1.4c0.3,0.1,0.5,0.3,0.6,0.6
		c0.2,0.8,0.4,1.8,0.4,2.2c0,0.3,0.3,0.5,0.6,0.5c0,0,0,0,0.1,0c0.3,0,0.6-0.3,0.5-0.7c-0.1-0.5-0.3-1.8-0.4-2.3
		C17.5,21,16.9,20.4,16.2,20.2z"/>
</g>
</svg>
