<?xml version="1.0" encoding="utf-8"?>
<!-- Generator: Adobe Illustrator 19.2.0, SVG Export Plug-In . SVG Version: 6.00 Build 0)  -->
<svg version="1.1" id="Capa_1" xmlns="http://www.w3.org/2000/svg" xmlns:xlink="http://www.w3.org/1999/xlink" x="0px" y="0px"
	 viewBox="0 0 50 50" style="enable-background:new 0 0 50 50;" xml:space="preserve">
<style type="text/css">
	.st0{fill:#DD4477;}
</style>
<g>
	<path class="st0" d="M26.4,13.3c-0.1-0.3-0.3-0.5-0.6-0.6c-0.3-0.1-0.6-0.1-0.8,0.1c-4.4,2.3-9.5,2.3-13.9,0
		c-0.3-0.1-0.6-0.2-0.8-0.1c-0.3,0.1-0.5,0.3-0.6,0.6l-3.6,9.4c-0.2,0.5,0,1,0.5,1.2c3.6,1.9,7.5,3,11.4,3s7.9-1,11.4-3
		c0.4-0.2,0.6-0.8,0.5-1.2L26.4,13.3z M8.3,22.6l2.9-7.6c4.4,2,9.3,2,13.7,0l2.9,7.6C21.5,25.6,14.5,25.6,8.3,22.6z"/>
	<path class="st0" d="M4.1,49.5H32c1.7,0,3.1-1.3,3.1-3.1v-2.1c4.8-0.5,8.6-4.6,8.6-9.5v-18h2.2c0.5,0,0.9-0.3,1-0.8l2-10.5
		c0.1-0.6-0.4-1.2-1-1.2h-0.6c-0.5-2.1-2.5-3.8-4.8-3.8c-2.2,0-4.3,1.6-4.7,3.8h-0.6c-0.6,0-1.1,0.6-1,1.2l2,10.5
		c0.1,0.5,0.5,0.8,1,0.8h2.2v17.9c0,3.8-2.9,6.9-6.5,7.5v-3.6c0-1.7-1.3-3.1-3.1-3.1h-7v-3.8h7c1.7,0,3.1-1.3,3.1-3.1V11.2
		c0-1.7-1.3-3.1-3.1-3.1H4.1c-1.7,0-3.1,1.3-3.1,3.1v17.5c0,1.7,1.3,3.1,3.1,3.1h7v3.8h-7c-1.7,0-3.1,1.3-3.1,3.1v7.9
		C1.1,48.2,2.4,49.5,4.1,49.5z M42.5,2.5c1.1,0,2.1,0.7,2.7,1.7h-5.2C40.4,3.3,41.4,2.5,42.5,2.5z M40.1,14.8l-1.6-8.5h8.2L45,14.8
		H40.1z M4.1,29.7c-0.6,0-1-0.4-1-1V11.2c0-0.6,0.4-1,1-1H32c0.6,0,1,0.4,1,1v17.5c0,0.6-0.4,1-1,1C16.3,29.7,20.1,29.7,4.1,29.7z
		 M22.8,31.7v3.8h-9.6v-3.8C13.2,31.7,22.8,31.7,22.8,31.7z M3.1,38.6c0-0.6,0.4-1,1-1H32c0.6,0,1,0.4,1,1v7.9c0,0.6-0.4,1-1,1H4.1
		c-0.6,0-1-0.4-1-1V38.6z"/>
	<path class="st0" d="M7.1,41.9h1.1c0.6,0,1-0.4,1-1s-0.4-1-1-1H7.1c-0.6,0-1,0.4-1,1S6.5,41.9,7.1,41.9z"/>
	<path class="st0" d="M12.3,41.9h1.1c0.6,0,1-0.4,1-1s-0.4-1-1-1h-1.1c-0.6,0-1,0.4-1,1S11.7,41.9,12.3,41.9z"/>
	<path class="st0" d="M17.4,41.9h1.1c0.6,0,1-0.4,1-1s-0.4-1-1-1h-1.1c-0.6,0-1,0.4-1,1S16.9,41.9,17.4,41.9z"/>
	<path class="st0" d="M22.6,41.9h1.1c0.6,0,1-0.4,1-1s-0.4-1-1-1h-1.1c-0.6,0-1,0.4-1,1S22.1,41.9,22.6,41.9z"/>
	<path class="st0" d="M27.8,41.9h1.1c0.6,0,1-0.4,1-1s-0.4-1-1-1h-1.1c-0.6,0-1,0.4-1,1S27.2,41.9,27.8,41.9z"/>
	<path class="st0" d="M23.2,43.7H12.8c-0.6,0-1,0.4-1,1s0.4,1,1,1h10.4c0.6,0,1-0.4,1-1S23.7,43.7,23.2,43.7z"/>
</g>
</svg>
